<?xml version="1.0" encoding="utf-8"?>
<!-- Generator: Adobe Illustrator 16.0.4, SVG Export Plug-In . SVG Version: 6.00 Build 0)  -->
<!DOCTYPE svg PUBLIC "-//W3C//DTD SVG 1.1//EN" "http://www.w3.org/Graphics/SVG/1.1/DTD/svg11.dtd">
<svg version="1.1" id="Layer_1" xmlns="http://www.w3.org/2000/svg" xmlns:xlink="http://www.w3.org/1999/xlink" x="0px" y="0px"
	 width="1000px" height="312.738px" viewBox="0 0 1000 312.738" enable-background="new 0 0 1000 312.738" xml:space="preserve">
<filter  width="140%" height="140%" y="-20%" x="-20%" id="drop-shadow">
	<feGaussianBlur  stdDeviation="10" result="blur-out" in="SourceAlpha"></feGaussianBlur>
	<feOffset  dy="0" dx="0" result="the-shadow" in="blur-out"></feOffset>
	
		<feColorMatrix  type="matrix" values="0 0 0 0   0             0 0 0 0   0              0 0 0 0   0              0 0 0 .2 0" result="color-out" in="the-shadow">
		</feColorMatrix>
	<feBlend  mode="normal" in2="color-out" in="SourceGraphic"></feBlend>
</filter>
<path fill-rule="evenodd" clip-rule="evenodd" fill="#FFFFFF" d="M70.516,66.684c0,0,31.428-10.294,36.021-11.753
	c3.761-1.194,153.613-49.348,159.292-50.994c7.292-2.112,15.267-3.5,24.193-2.714c2.875,0.253,9.388,1.85,13.116,3.59
	s12.861,12.736,15.502,16.395c2.642,3.659,9.542,14.869,9.92,17.019c0.5,2.851,0.495,6.814,0.332,9.303
	c-0.069,1.053-1.257,5.009-1.776,5.874c-2.096,3.484-5.313,6.698-12.047,8.982c-3.772,1.28-7.944,0.654-10.161-0.938
	c-3.241-2.33-19.19-21.466-20.423-23.185c-0.62-0.86-2.453-1.132-4.066-0.589c-3.417,1.148-55.128,18.338-59.457,19.837
	c-2.489,0.861-8.392,4.154-10.717,5.978c-1.556,1.22-4.691,3.195-4.691,3.195H70.516z"/>
<path fill-rule="evenodd" clip-rule="evenodd" fill="#FFFFFF" d="M943.689,66.684c0,0-31.428-10.294-36.023-11.753
	c-3.76-1.194-153.611-49.348-159.291-50.994c-7.291-2.112-15.266-3.5-24.193-2.714c-2.875,0.253-9.389,1.85-13.115,3.59
	c-3.729,1.74-12.861,12.736-15.502,16.395c-2.643,3.659-9.543,14.869-9.92,17.019c-0.5,2.851-0.496,6.814-0.334,9.303
	c0.07,1.053,1.258,5.009,1.777,5.874c2.096,3.484,5.312,6.698,12.047,8.982c3.773,1.28,7.943,0.654,10.16-0.938
	c3.242-2.33,19.191-21.466,20.424-23.185c0.619-0.86,2.453-1.132,4.066-0.589c3.416,1.148,55.127,18.338,59.457,19.837
	c2.488,0.861,8.391,4.154,10.717,5.978c1.557,1.22,4.691,3.195,4.691,3.195H943.689z"/>
<path fill="#FFFFFF" filter="url(#drop-shadow)" d="M943.689,65.968c0,0-873.089-0.64-873.172,0
	c-0.226,1.758,17.445,170.757,17.222,171.812c0.891,5.842,1.917,8.541,7.439,8.199c6.341-0.389,12.742-0.721,19.062-0.291
	c7.719,0.527,14.304,3.926,19.511,9.795c2.702,3.045,5.354,6.188,8.408,8.857c4.409,3.855,9.245,7.137,15.517,7.168
	c24.836,0.125,261.263,0.152,265.596,0c2.267-0.08,4.614-0.814,6.766-1.467c8.43-2.557,14.705-7.969,19.467-15.221
	c4.429-6.748,8.785-13.541,13.245-20.27c5.458-8.242,10.927-16.479,16.52-24.631c2.477-3.611,4.752-7.607,8.009-10.398
	c10.787-9.24,27.422-7.268,36.186,3.957c3.086,3.951,5.883,8.127,8.805,12.205c4.892,6.826,9.804,13.639,14.657,20.488
	c5.17,7.297,10.08,14.785,15.474,21.914c5.422,7.166,12.805,11.648,21.781,12.9c5.203,0.727,10.52,0.516,15.785,0.506
	c48.492-0.082,239.451,0.182,254.27,0c3.32-0.039,6.486-0.641,9.529-2.277c5.271-2.834,9.193-7.098,13.025-11.453
	c4.975-5.654,10.619-10.479,18.42-10.799c9.34-0.385,18.717,0.174,28.076,0.232c3.045,0.018,6.109-0.084,9.127-0.447
	c2.139-0.258,3.213-1.746,3.111-4.016c-0.084-1.873-0.066-3.754,0.025-5.625C935.973,228.705,943.617,66.609,943.689,65.968z
	 M389.168,237.434H190.887c-10.456,0-18.932-8.43-18.932-18.828l-3.785-102.839c0-10.397,8.476-18.826,18.93-18.826h196.39
	c10.456,0,18.931,8.429,18.931,18.826l5.678,102.839C408.099,229.004,399.624,237.434,389.168,237.434z M839.439,218.605
	c0,10.398-8.475,18.828-18.93,18.828H622.225c-10.455,0-18.93-8.43-18.93-18.828l5.68-102.839c0-10.397,8.475-18.826,18.93-18.826
	h196.393c10.453,0,18.928,8.429,18.928,18.826L839.439,218.605z"/>
</svg>
